<svg width="32" height="32" viewBox="0 0 32 32" fill="none" xmlns="http://www.w3.org/2000/svg">
  <defs>
    <linearGradient id="splashGradient32" x1="0%" y1="0%" x2="100%" y2="100%">
      <stop offset="0%" style="stop-color:#667eea;stop-opacity:1" />
      <stop offset="50%" style="stop-color:#764ba2;stop-opacity:1" />
      <stop offset="100%" style="stop-color:#f093fb;stop-opacity:1" />
    </linearGradient>
  </defs>
  
  <!-- Фон -->
  <rect width="32" height="32" rx="6" fill="url(#splashGradient32)"/>
  
  <!-- Основная клякса -->
  <path d="M16 6C20 6 24 8 25 12C26 16 24 20 21 22C18 24 14 24 11 23C8 22 6 19 6 16C6 13 8 10 11 8C13 7 14 6 16 6Z" 
        fill="rgba(255,255,255,0.9)"/>
  
  <!-- Малые кляксы -->
  <circle cx="12" cy="11" r="2" fill="rgba(255,255,255,0.7)"/>
  <circle cx="22" cy="13" r="1.5" fill="rgba(255,255,255,0.6)"/>
  <circle cx="13" cy="21" r="1" fill="rgba(255,255,255,0.5)"/>
  
  <!-- Брызги -->
  <circle cx="8" cy="13" r="0.5" fill="rgba(255,255,255,0.8)"/>
  <circle cx="25" cy="10" r="0.5" fill="rgba(255,255,255,0.7)"/>
  <circle cx="24" cy="21" r="0.5" fill="rgba(255,255,255,0.6)"/>
</svg>
