<svg width="512" height="512" viewBox="0 0 512 512" fill="none" xmlns="http://www.w3.org/2000/svg">
  <defs>
    <linearGradient id="splashGradient" x1="0%" y1="0%" x2="100%" y2="100%">
      <stop offset="0%" style="stop-color:#667eea;stop-opacity:1" />
      <stop offset="50%" style="stop-color:#764ba2;stop-opacity:1" />
      <stop offset="100%" style="stop-color:#f093fb;stop-opacity:1" />
    </linearGradient>
    <filter id="glow">
      <feGaussianBlur stdDeviation="3" result="coloredBlur"/>
      <feMerge> 
        <feMergeNode in="coloredBlur"/>
        <feMergeNode in="SourceGraphic"/>
      </feMerge>
    </filter>
  </defs>
  
  <!-- Фон -->
  <rect width="512" height="512" rx="80" fill="url(#splashGradient)"/>
  
  <!-- Основная клякса -->
  <path d="M256 80C320 80 380 120 400 180C420 240 390 300 340 340C290 380 220 390 170 370C120 350 80 300 90 240C100 180 150 120 200 100C220 90 240 80 256 80Z" 
        fill="rgba(255,255,255,0.9)" 
        filter="url(#glow)"/>
  
  <!-- Малые кляксы -->
  <circle cx="180" cy="160" r="25" fill="rgba(255,255,255,0.7)"/>
  <circle cx="350" cy="200" r="18" fill="rgba(255,255,255,0.6)"/>
  <circle cx="200" cy="320" r="15" fill="rgba(255,255,255,0.5)"/>
  <circle cx="320" cy="300" r="12" fill="rgba(255,255,255,0.4)"/>
  
  <!-- Брызги -->
  <circle cx="120" cy="200" r="8" fill="rgba(255,255,255,0.8)"/>
  <circle cx="400" cy="150" r="6" fill="rgba(255,255,255,0.7)"/>
  <circle cx="380" cy="320" r="7" fill="rgba(255,255,255,0.6)"/>
  <circle cx="150" cy="380" r="5" fill="rgba(255,255,255,0.5)"/>
  <circle cx="300" cy="120" r="4" fill="rgba(255,255,255,0.4)"/>
  
  <!-- Дополнительные эффекты -->
  <ellipse cx="250" cy="200" rx="80" ry="60" fill="rgba(255,255,255,0.3)" opacity="0.5"/>
  <ellipse cx="280" cy="260" rx="40" ry="30" fill="rgba(255,255,255,0.2)" opacity="0.7"/>
</svg>
